<svg xmlns="http://www.w3.org/2000/svg" width="1200" height="960" viewBox="0 0 1200 960" role="img" aria-label="05 · SHIP — Onboarding">
<defs>
  <filter id="btnShadow" x="-20%" y="-20%" width="140%" height="140%">
    <feDropShadow dx="0" dy="4" stdDeviation="6" flood-color="#F05B83" flood-opacity="0.35"/>
  </filter>
  <filter id="devShadow" x="-30%" y="-30%" width="160%" height="160%">
    <feDropShadow dx="0" dy="28" stdDeviation="24" flood-color="#5B3FA8" flood-opacity="0.22"/>
  </filter>
  <radialGradient id="studio" cx="50%" cy="30%" r="70%">
    <stop offset="0%" stop-color="#F0EDF6"/><stop offset="100%" stop-color="#F6F5F2"/>
  </radialGradient>
</defs>
<rect width="1200" height="960" fill="url(#studio)"/>
<text x="80" y="76" font-family="'Segoe UI Variable', 'Segoe UI', -apple-system, BlinkMacSystemFont, sans-serif" font-size="11" font-weight="600" fill="#5B3FA8" letter-spacing="0.12em">BYJU&apos;S FUTURESCHOOL · K-8</text>
<text x="80" y="108" font-family="'Segoe UI Variable', 'Segoe UI', -apple-system, BlinkMacSystemFont, sans-serif" font-size="28" font-weight="700" fill="#171A1F">Points Marketplace</text>
<text x="80" y="136" font-family="'Segoe UI Variable', 'Segoe UI', -apple-system, BlinkMacSystemFont, sans-serif" font-size="15" fill="#6B7280">Sally hi-fi · Fluent UI · iPhone 15</text>
<rect x="395" y="36" width="418" height="872" rx="54" fill="#1C1C1E" filter="url(#devShadow)"/>
<rect x="409" y="50" width="390" height="844" rx="44" fill="#F6F4FB"/>
<rect x="541" y="60" width="126" height="37" rx="19" fill="#000"/>
<text x="437" y="88" font-family="'Segoe UI Variable', 'Segoe UI', -apple-system, BlinkMacSystemFont, sans-serif" font-size="15" font-weight="600" fill="#171A1F">9:41</text>
<rect x="409" y="104" width="390" height="44" fill="#F6F4FB"/>
<text x="604" y="132" text-anchor="middle" font-family="'Segoe UI Variable', 'Segoe UI', -apple-system, BlinkMacSystemFont, sans-serif" font-size="17" font-weight="700" fill="#5B3FA8">Rewards</text>
<text x="425" y="188" font-family="'Segoe UI Variable', 'Segoe UI', -apple-system, BlinkMacSystemFont, sans-serif" font-size="34" font-weight="700" fill="#171A1F">Earn &amp; spend</text>
<text x="425" y="212" font-family="'Segoe UI Variable', 'Segoe UI', -apple-system, BlinkMacSystemFont, sans-serif" font-size="15" fill="#6B7280">Before marketplace browse</text>
<rect x="409" y="811" width="390" height="83" fill="rgba(255,255,255,0.96)"/>
<line x1="409" y1="811" x2="799" y2="811" stroke="#E8E0F4"/>
<g transform="translate(448,821) scale(0.9166666666666666,0.9166666666666666)" fill="#6B7280"><path d="M10.55 2.1a1.5 1.5 0 0 1 2.1.35l8 10A1.5 1.5 0 0 1 19.5 15H17v6.5a1.5 1.5 0 0 1-1.5 1.5h-3A1.5 1.5 0 0 1 11 21.5V17H9v4.5A1.5 1.5 0 0 1 7.5 23h-3A1.5 1.5 0 0 1 3 21.5V15H.9a1.5 1.5 0 0 1-1.15-2.45l8-10a1.5 1.5 0 0 1 2.1-.35Z"/></g>
<text x="457" y="859" text-anchor="middle" font-family="'Segoe UI Variable', 'Segoe UI', -apple-system, BlinkMacSystemFont, sans-serif" font-size="10" font-weight="400" fill="#6B7280">Home</text>
<g transform="translate(546,821) scale(0.9166666666666666,0.9166666666666666)" fill="#5B3FA8"><path d="M9.5 3.75A2.25 2.25 0 0 1 12 2.25a2.25 2.25 0 0 1 2.5 1.5 2.25 2.25 0 0 1 4.5 6v1.5H3V6A2.25 2.25 0 0 1 9.5 3.75ZM3 9v10.5A2.25 2.25 0 0 0 5.25 21.75h13.5A2.25 2.25 0 0 0 21 19.5V9H3Zm4.5 0v9h3v-9h-3Zm4.5 0v9h3v-9h-3Z"/></g>
<text x="555" y="859" text-anchor="middle" font-family="'Segoe UI Variable', 'Segoe UI', -apple-system, BlinkMacSystemFont, sans-serif" font-size="10" font-weight="600" fill="#5B3FA8">Rewards</text>
<g transform="translate(644,821) scale(0.9166666666666666,0.9166666666666666)" fill="#6B7280"><path d="M12 2a10 10 0 1 0 0 20 10 10 0 0 0 0-20Zm-2.2 6.3a.75.75 0 0 1 1.15-.63l6.5 4a.75.75 0 0 1 0 1.26l-6.5 4a.75.75 0 0 1-1.15-.63V8.3Z"/></g>
<text x="653" y="859" text-anchor="middle" font-family="'Segoe UI Variable', 'Segoe UI', -apple-system, BlinkMacSystemFont, sans-serif" font-size="10" font-weight="400" fill="#6B7280">Play</text>
<g transform="translate(742,821) scale(0.9166666666666666,0.9166666666666666)" fill="#6B7280"><path d="M12 3a4.5 4.5 0 1 1 0 9 4.5 4.5 0 0 1 0-9ZM5.5 20.5a6.5 6.5 0 0 1 13 0 .75.75 0 0 1-.75.75h-11.5a.75.75 0 0 1-.75-.75Z"/></g>
<text x="751" y="859" text-anchor="middle" font-family="'Segoe UI Variable', 'Segoe UI', -apple-system, BlinkMacSystemFont, sans-serif" font-size="10" font-weight="400" fill="#6B7280">You</text>
<rect x="537" y="880" width="134" height="5" rx="3" fill="#000" opacity="0.35"/>
<text x="604" y="944" text-anchor="middle" font-family="'Segoe UI Variable', 'Segoe UI', -apple-system, BlinkMacSystemFont, sans-serif" font-size="13" fill="#6B7280" letter-spacing="0.04em">05 · SHIP — Onboarding</text>
<rect x="425" y="236" width="358" height="56" rx="12" fill="#FFFFFF"/>
<circle cx="453" cy="264" r="14" fill="#22C55E20"/>
<text x="453" y="269" text-anchor="middle" font-family="'Segoe UI Variable', 'Segoe UI', -apple-system, BlinkMacSystemFont, sans-serif" font-size="13" font-weight="700" fill="#22C55E">1</text>
<text x="477" y="262" font-family="'Segoe UI Variable', 'Segoe UI', -apple-system, BlinkMacSystemFont, sans-serif" font-size="15" font-weight="600" fill="#171A1F">Earn points</text>
<text x="477" y="280" font-family="'Segoe UI Variable', 'Segoe UI', -apple-system, BlinkMacSystemFont, sans-serif" font-size="13" fill="#6B7280">Class + practice streaks</text>
<rect x="425" y="302" width="358" height="56" rx="12" fill="#FFFFFF"/>
<circle cx="453" cy="330" r="14" fill="#22C55E20"/>
<text x="453" y="335" text-anchor="middle" font-family="'Segoe UI Variable', 'Segoe UI', -apple-system, BlinkMacSystemFont, sans-serif" font-size="13" font-weight="700" fill="#22C55E">2</text>
<text x="477" y="328" font-family="'Segoe UI Variable', 'Segoe UI', -apple-system, BlinkMacSystemFont, sans-serif" font-size="15" font-weight="600" fill="#171A1F">Understand balance</text>
<text x="477" y="346" font-family="'Segoe UI Variable', 'Segoe UI', -apple-system, BlinkMacSystemFont, sans-serif" font-size="13" fill="#6B7280">One spendable number</text>
<rect x="425" y="368" width="358" height="56" rx="12" fill="#FFFFFF"/>
<circle cx="453" cy="396" r="14" fill="#5B3FA820"/>
<text x="453" y="401" text-anchor="middle" font-family="'Segoe UI Variable', 'Segoe UI', -apple-system, BlinkMacSystemFont, sans-serif" font-size="13" font-weight="700" fill="#5B3FA8">3</text>
<text x="477" y="394" font-family="'Segoe UI Variable', 'Segoe UI', -apple-system, BlinkMacSystemFont, sans-serif" font-size="15" font-weight="600" fill="#171A1F">Browse &amp; redeem</text>
<text x="477" y="412" font-family="'Segoe UI Variable', 'Segoe UI', -apple-system, BlinkMacSystemFont, sans-serif" font-size="13" fill="#6B7280">Avatars after onboarding</text>
<rect x="425" y="753" width="358" height="52" rx="16" fill="#F05B83" filter="url(#btnShadow)"/>
<text x="604" y="785" text-anchor="middle" font-family="'Segoe UI Variable', 'Segoe UI', -apple-system, BlinkMacSystemFont, sans-serif" font-size="17" font-weight="600" fill="#FFFFFF">Start earn &amp; spend guide</text>
</svg>