<svg xmlns="http://www.w3.org/2000/svg" width="1200" height="960" viewBox="0 0 1200 960" role="img">
  <defs>
    <filter id="shadow2"><feDropShadow dx="0" dy="2" stdDeviation="3" flood-opacity="0.1"/></filter>
    <filter id="shadow4"><feDropShadow dx="0" dy="4" stdDeviation="6" flood-opacity="0.12"/></filter>
    <linearGradient id="heroGrad" x1="0" y1="0" x2="1" y2="1">
      <stop offset="0%" stop-color="#1A1A1A"/><stop offset="100%" stop-color="#2d2d2d"/>
    </linearGradient>
    <linearGradient id="accentGrad" x1="0" y1="0" x2="0" y2="1">
      <stop offset="0%" stop-color="#FFF9E0"/><stop offset="100%" stop-color="#FFFDF5"/>
    </linearGradient>
  </defs>
  <rect width="1200" height="960" fill="#FFCD00"/>
  <circle cx="160" cy="180" r="100" fill="#FFFFFF" opacity="0.1"/>
  <text x="600" y="46" text-anchor="middle" font-family="Segoe UI, system-ui, -apple-system, sans-serif" font-size="11" font-weight="600" fill="#1A1A1A" letter-spacing="0.1em">STRYKER · FIELD LOGISTICS</text>
  <text x="600" y="74" text-anchor="middle" font-family="Segoe UI, system-ui, -apple-system, sans-serif" font-size="20" font-weight="600" fill="#1A1A1A">03 · ORDER</text>
  <rect x="405" y="88" width="390" height="784" rx="40" fill="#FFFFFF" stroke="#D1D1D1" filter="url(#shadow4)"/>
  <rect x="560" y="96" width="80" height="24" rx="12" fill="#F5F5F5"/>
  <text x="600" y="112" text-anchor="middle" font-family="Segoe UI, system-ui, -apple-system, sans-serif" font-size="11" fill="#616161">9:41</text>
  <rect x="405" y="124" width="390" height="48" fill="#FAFAFA" stroke="#E0E0E0"/>
    <g transform="translate(425,136) scale(-0.75,0.75)" fill="#424242"><path d="M13.47 4.47a.75.75 0 0 1 1.06 0l6 6a.75.75 0 0 1 0 1.06l-6 6a.75.75 0 1 1-1.06-1.06L17.94 12H4.75a.75.75 0 0 1 0-1.5h13.19l-3.47-3.47a.75.75 0 0 1 0-1.06Z"/></g>
  <text x="451" y="150" font-family="Segoe UI, system-ui, -apple-system, sans-serif" font-size="12" font-weight="600" fill="#424242">STRYKER</text>
    <g transform="translate(753,134) scale(0.9166666666666666,0.9166666666666666)" fill="#0078D4"><path d="M8 2.25A3.25 3.25 0 0 0 4.75 5.5v.26c0 .3.04.6.11.88L3 18.75A1.25 1.25 0 0 0 4.24 20.5h15.52a1.25 1.25 0 0 0 1.24-1.42l-1.86-12.11a3.25 3.25 0 0 0-3.21-2.77H8.9a3.25 3.25 0 0 0-3.2 2.77H4.75A1.25 1.25 0 0 1 8 4.75h8a1.25 1.25 0 0 1 0 2.5H8ZM7.5 21a1.75 1.75 0 1 0 0-3.5 1.75 1.75 0 0 0 0 3.5Zm9 0a1.75 1.75 0 1 0 0-3.5 1.75 1.75 0 0 0 0 3.5Z"/></g>
  <line x1="405" y1="172" x2="795" y2="172" stroke="#E0E0E0"/>
  <text x="425" y="196" font-family="Segoe UI, system-ui, -apple-system, sans-serif" font-size="22" font-weight="600" fill="#242424">New order</text>
  <text x="425" y="230" font-family="Segoe UI, system-ui, -apple-system, sans-serif" font-size="13" fill="#616161">Dr. Vasquez · CASE-28491</text>
  <rect x="425" y="244" width="350" height="72" rx="12" fill="#FFFFFF" stroke="#D1D1D1" stroke-width="1" filter="url(#shadow2)"/>
  <rect x="441" y="264" width="40" height="40" rx="8" fill="#FFF8E1"/>
  <g transform="translate(451,274) scale(0.8333333333333334,0.8333333333333334)" fill="#CA5010"><path d="M12 2.6l2.4 5.5 6 .5-4.5 4 1.4 5.9L12 15.8l-5.3 2.7 1.4-5.9-4.5-4 6-.5L12 2.6Z"/></g>
  <text x="493" y="274" font-family="Segoe UI, system-ui, -apple-system, sans-serif" font-size="11" fill="#616161">From preferences</text>
  <text x="493" y="294" font-family="Segoe UI, system-ui, -apple-system, sans-serif" font-size="14" font-weight="600" fill="#242424">Spine set A · Qty 1</text>
  <rect x="425" y="328" width="350" height="72" rx="12" fill="#FFFFFF" stroke="#D1D1D1" stroke-width="1" filter="url(#shadow2)"/>
  <rect x="441" y="348" width="40" height="40" rx="8" fill="#EBF3FC"/>
  <g transform="translate(451,358) scale(0.8333333333333334,0.8333333333333334)" fill="#0078D4"><path d="M12 2.2a1.2 1.2 0 0 1 .5.1l8 3.5a1.2 1.2 0 0 1 .7 1.1v9.2a1.2 1.2 0 0 1-.7 1.1l-8 3.5a1.2 1.2 0 0 1-1 0l-8-3.5a1.2 1.2 0 0 1-.7-1.1V6.9a1.2 1.2 0 0 1 .7-1.1l8-3.5a1.2 1.2 0 0 1 .5-.1Zm0 2.3-6.8 3 6.8 3 6.8-3-6.8-3ZM5 10.2v5.1l6 2.6v-5.1l-6-2.6Zm14 0-6 2.6v5.1l6-2.6v-5.1Z"/></g>
  <text x="493" y="358" font-family="Segoe UI, system-ui, -apple-system, sans-serif" font-size="11" fill="#616161">SKU TRQ-4420</text>
  <text x="493" y="378" font-family="Segoe UI, system-ui, -apple-system, sans-serif" font-size="14" font-weight="600" fill="#242424">Titanium screw kit · Qty 2</text>
  <rect x="425" y="412" width="148" height="36" rx="8" fill="#EBF3FC" stroke="#0078D4" stroke-width="1"/>
  <g transform="translate(435,420) scale(0.8333333333333334,0.8333333333333334)" fill="#0078D4"><path d="M12 2a10 10 0 1 0 0 20 10 10 0 0 0 0-20Zm1 5a1 1 0 0 0-2 0v4H7a1 1 0 0 0 0 2h4v4a1 1 0 0 0 2 0v-4h4a1 1 0 0 0 0-2h-4V7Z"/></g>
  <text x="461" y="435" font-family="Segoe UI, system-ui, -apple-system, sans-serif" font-size="12" font-weight="600" fill="#0078D4">Add line item</text>
  <line x1="425" y1="464" x2="775" y2="464" stroke="#E0E0E0" stroke-width="1"/>
  <text x="425" y="492" font-family="Segoe UI, system-ui, -apple-system, sans-serif" font-size="12" font-weight="600" fill="#242424">Surgeon sign-off</text>
  <rect x="425" y="504" width="22" height="22" rx="4" fill="#0078D4"/>
  <g transform="translate(428,507) scale(0.6666666666666666,0.6666666666666666)" fill="#FFFFFF"><path d="M12 2a10 10 0 1 0 0 20 10 10 0 0 0 0-20Zm-1.2 13.2-4-4 1.4-1.4 2.6 2.6 6.6-6.6 1.4 1.4-8 8Z"/></g>
  <text x="455" y="520" font-family="Segoe UI, system-ui, -apple-system, sans-serif" font-size="13" fill="#242424">Confirmed verbally in OR briefing</text>
  <rect x="425" y="740" width="350" height="48" rx="12" fill="#FFCD00" stroke="#1A1A1A" stroke-width="1.5" filter="url(#shadow2)"/>
  <text x="590" y="770" text-anchor="middle" font-family="Segoe UI, system-ui, -apple-system, sans-serif" font-size="14" font-weight="600" fill="#1A1A1A">Submit order</text>
  <g transform="translate(735,754) scale(0.8333333333333334,0.8333333333333334)" fill="#1A1A1A"><path d="M12 2a10 10 0 1 0 0 20 10 10 0 0 0 0-20Zm-1.2 13.2-4-4 1.4-1.4 2.6 2.6 6.6-6.6 1.4 1.4-8 8Z"/></g>
None
  <text x="600" y="942" text-anchor="middle" font-family="Segoe UI, system-ui, -apple-system, sans-serif" font-size="10" fill="#616161">Fluent UI · 20px margins · 8px grid</text>
</svg>