<svg xmlns="http://www.w3.org/2000/svg" viewBox="0 0 1200 740" fill="none" aria-hidden="true">
  <defs>
    <linearGradient id="mp-lid" x1="600" y1="28" x2="600" y2="612" gradientUnits="userSpaceOnUse">
      <stop stop-color="#F2F4F8"/>
      <stop offset="1" stop-color="#C9D0DB"/>
    </linearGradient>
    <linearGradient id="mp-base" x1="600" y1="612" x2="600" y2="728" gradientUnits="userSpaceOnUse">
      <stop stop-color="#DDE2EA"/>
      <stop offset="1" stop-color="#B4BCC8"/>
    </linearGradient>
    <filter id="mp-shadow" x="120" y="596" width="960" height="40" filterUnits="userSpaceOnUse" color-interpolation-filters="sRGB">
      <feGaussianBlur stdDeviation="10"/>
    </filter>
  </defs>
  <ellipse cx="600" cy="618" rx="380" ry="10" fill="#1A2030" opacity="0.12" filter="url(#mp-shadow)"/>
  <path fill="url(#mp-base)" stroke="#A3ACBA" stroke-width="1" d="M72 612h1056c15.5 0 28 12.5 28 28v8c0 15.5-12.5 28-28 28H72c-15.5 0-28-12.5-28-28v-8c0-15.5 12.5-28 28-28z"/>
  <rect x="468" y="646" width="264" height="76" rx="10" fill="#B8C0CC" opacity="0.55"/>
  <rect x="468" y="646" width="264" height="76" rx="10" stroke="#A3ACBA" stroke-width="1" opacity="0.6"/>
  <path fill="url(#mp-lid)" stroke="#A8B1BF" stroke-width="1.25" d="M48 40h1104c15.5 0 28 12.5 28 28v532c0 15.5-12.5 28-28 28H48c-15.5 0-28-12.5-28-28V68c0-15.5 12.5-28 28-28z"/>
  <rect x="48" y="600" width="1104" height="6" rx="3" fill="#9AA5B5"/>
  <rect x="80" y="56" width="1040" height="552" rx="14" fill="#12151A"/>
  <rect x="88" y="64" width="1024" height="536" rx="10" fill="#080A0D" stroke="#2A313C" stroke-width="1"/>
  <rect x="528" y="64" width="144" height="20" rx="10" fill="#080A0D"/>
  <rect x="536" y="72" width="128" height="4" rx="2" fill="#1E2430" opacity="0.85"/>
  <circle cx="600" cy="74" r="2.5" fill="#2A3344"/>
</svg>
